<mxfile host="app.diagrams.net" modified="2024-05-26T20:52:53.714Z" agent="Mozilla/5.0 (Windows NT 10.0; Win64; x64) AppleWebKit/537.36 (KHTML, like Gecko) Chrome/125.0.0.0 Safari/537.36" etag="lsr252gQc8gvBFfn930u" version="24.4.8" type="device">
  <diagram id="C5RBs43oDa-KdzZeNtuy" name="Page-1">
    <mxGraphModel dx="3341" dy="918" grid="1" gridSize="10" guides="1" tooltips="1" connect="1" arrows="1" fold="1" page="1" pageScale="1" pageWidth="827" pageHeight="1169" math="0" shadow="0">
      <root>
        <mxCell id="WIyWlLk6GJQsqaUBKTNV-0" />
        <mxCell id="WIyWlLk6GJQsqaUBKTNV-1" parent="WIyWlLk6GJQsqaUBKTNV-0" />
        <mxCell id="zkfFHV4jXpPFQw0GAbJ--6" value="Empleado" style="swimlane;fontStyle=0;align=center;verticalAlign=top;childLayout=stackLayout;horizontal=1;startSize=26;horizontalStack=0;resizeParent=1;resizeLast=0;collapsible=1;marginBottom=0;rounded=0;shadow=0;strokeWidth=1;" parent="WIyWlLk6GJQsqaUBKTNV-1" vertex="1">
          <mxGeometry x="-700" y="470" width="370" height="230" as="geometry">
            <mxRectangle x="130" y="380" width="160" height="26" as="alternateBounds" />
          </mxGeometry>
        </mxCell>
        <mxCell id="zkfFHV4jXpPFQw0GAbJ--7" value="Responsabilidades:" style="text;align=left;verticalAlign=top;spacingLeft=4;spacingRight=4;overflow=hidden;rotatable=0;points=[[0,0.5],[1,0.5]];portConstraint=eastwest;" parent="zkfFHV4jXpPFQw0GAbJ--6" vertex="1">
          <mxGeometry y="26" width="370" height="26" as="geometry" />
        </mxCell>
        <mxCell id="zkfFHV4jXpPFQw0GAbJ--8" value="Gestionar el registro de nuevos libros.&#xa;Registrar nuevos socios.&#xa;Realizar y gestionar préstamos y devoluciones de libros.&#xa;Asistir a los usuarios en consultas sobre disponibilidad de libros." style="text;align=left;verticalAlign=top;spacingLeft=4;spacingRight=4;overflow=hidden;rotatable=0;points=[[0,0.5],[1,0.5]];portConstraint=eastwest;rounded=0;shadow=0;html=0;" parent="zkfFHV4jXpPFQw0GAbJ--6" vertex="1">
          <mxGeometry y="52" width="370" height="68" as="geometry" />
        </mxCell>
        <mxCell id="zkfFHV4jXpPFQw0GAbJ--9" value="" style="line;html=1;strokeWidth=1;align=left;verticalAlign=middle;spacingTop=-1;spacingLeft=3;spacingRight=3;rotatable=0;labelPosition=right;points=[];portConstraint=eastwest;" parent="zkfFHV4jXpPFQw0GAbJ--6" vertex="1">
          <mxGeometry y="120" width="370" height="20" as="geometry" />
        </mxCell>
        <mxCell id="zkfFHV4jXpPFQw0GAbJ--10" value="Colaboradores:&#xa;&#xa;Sistema (para registrar y gestionar información)&#xa;Libro (para registrar préstamos y devoluciones)&#xa;Socio (para registrar y gestionar información)" style="text;align=left;verticalAlign=top;spacingLeft=4;spacingRight=4;overflow=hidden;rotatable=0;points=[[0,0.5],[1,0.5]];portConstraint=eastwest;fontStyle=0" parent="zkfFHV4jXpPFQw0GAbJ--6" vertex="1">
          <mxGeometry y="140" width="370" height="90" as="geometry" />
        </mxCell>
        <mxCell id="t991L9Meam5LPXpIdbOd-1" value="Libro" style="swimlane;fontStyle=0;align=center;verticalAlign=top;childLayout=stackLayout;horizontal=1;startSize=26;horizontalStack=0;resizeParent=1;resizeLast=0;collapsible=1;marginBottom=0;rounded=0;shadow=0;strokeWidth=1;" vertex="1" parent="WIyWlLk6GJQsqaUBKTNV-1">
          <mxGeometry x="250" y="470" width="460" height="260" as="geometry">
            <mxRectangle x="130" y="380" width="160" height="26" as="alternateBounds" />
          </mxGeometry>
        </mxCell>
        <mxCell id="t991L9Meam5LPXpIdbOd-3" value="Responsabilidades:&#xa;&#xa;Registrar nuevos libros en el sistema.&#xa;Almacenar información del libro (título, autor, género, número de ejemplares, ISBN).&#xa;Actualizar la disponibilidad de los libros.&#xa;Asociar libros con préstamos y devoluciones." style="text;align=left;verticalAlign=top;spacingLeft=4;spacingRight=4;overflow=hidden;rotatable=0;points=[[0,0.5],[1,0.5]];portConstraint=eastwest;rounded=0;shadow=0;html=0;" vertex="1" parent="t991L9Meam5LPXpIdbOd-1">
          <mxGeometry y="26" width="460" height="114" as="geometry" />
        </mxCell>
        <mxCell id="t991L9Meam5LPXpIdbOd-4" value="" style="line;html=1;strokeWidth=1;align=left;verticalAlign=middle;spacingTop=-1;spacingLeft=3;spacingRight=3;rotatable=0;labelPosition=right;points=[];portConstraint=eastwest;" vertex="1" parent="t991L9Meam5LPXpIdbOd-1">
          <mxGeometry y="140" width="460" height="20" as="geometry" />
        </mxCell>
        <mxCell id="t991L9Meam5LPXpIdbOd-5" value="Colaboradores:&#xa;&#xa;Sistema (para registrar y gestionar información)&#xa;Libro (para registrar préstamos y devoluciones)&#xa;Socio (para registrar y gestionar información)" style="text;align=left;verticalAlign=top;spacingLeft=4;spacingRight=4;overflow=hidden;rotatable=0;points=[[0,0.5],[1,0.5]];portConstraint=eastwest;fontStyle=0" vertex="1" parent="t991L9Meam5LPXpIdbOd-1">
          <mxGeometry y="160" width="460" height="90" as="geometry" />
        </mxCell>
        <mxCell id="t991L9Meam5LPXpIdbOd-6" value="Sistema" style="swimlane;fontStyle=0;align=center;verticalAlign=top;childLayout=stackLayout;horizontal=1;startSize=26;horizontalStack=0;resizeParent=1;resizeLast=0;collapsible=1;marginBottom=0;rounded=0;shadow=0;strokeWidth=1;" vertex="1" parent="WIyWlLk6GJQsqaUBKTNV-1">
          <mxGeometry x="1290" y="660" width="460" height="260" as="geometry">
            <mxRectangle x="130" y="380" width="160" height="26" as="alternateBounds" />
          </mxGeometry>
        </mxCell>
        <mxCell id="t991L9Meam5LPXpIdbOd-7" value="Responsabilidades:&#xa;&#xa;Gestionar la base de datos de la biblioteca.&#xa;Automatizar el registro y organización de materiales.&#xa;Gestionar digitalmente la información de los socios y sus membresías.&#xa;Permitir la realización y gestión de préstamos y devoluciones.&#xa;Proveer funcionalidades de consulta de disponibilidad de libros." style="text;align=left;verticalAlign=top;spacingLeft=4;spacingRight=4;overflow=hidden;rotatable=0;points=[[0,0.5],[1,0.5]];portConstraint=eastwest;rounded=0;shadow=0;html=0;" vertex="1" parent="t991L9Meam5LPXpIdbOd-6">
          <mxGeometry y="26" width="460" height="114" as="geometry" />
        </mxCell>
        <mxCell id="t991L9Meam5LPXpIdbOd-8" value="" style="line;html=1;strokeWidth=1;align=left;verticalAlign=middle;spacingTop=-1;spacingLeft=3;spacingRight=3;rotatable=0;labelPosition=right;points=[];portConstraint=eastwest;" vertex="1" parent="t991L9Meam5LPXpIdbOd-6">
          <mxGeometry y="140" width="460" height="20" as="geometry" />
        </mxCell>
        <mxCell id="t991L9Meam5LPXpIdbOd-9" value="Colaboradores:&#xa;&#xa;Libro (para registrar y gestionar información)&#xa;Socio (para registrar y gestionar información)&#xa;Empleado (para realizar operaciones de registro, préstamos y devoluciones)&#xa;Préstamo (para gestionar préstamos y devoluciones)" style="text;align=left;verticalAlign=top;spacingLeft=4;spacingRight=4;overflow=hidden;rotatable=0;points=[[0,0.5],[1,0.5]];portConstraint=eastwest;fontStyle=0" vertex="1" parent="t991L9Meam5LPXpIdbOd-6">
          <mxGeometry y="160" width="460" height="90" as="geometry" />
        </mxCell>
        <mxCell id="t991L9Meam5LPXpIdbOd-10" value="Socio" style="swimlane;fontStyle=0;align=center;verticalAlign=top;childLayout=stackLayout;horizontal=1;startSize=26;horizontalStack=0;resizeParent=1;resizeLast=0;collapsible=1;marginBottom=0;rounded=0;shadow=0;strokeWidth=1;" vertex="1" parent="WIyWlLk6GJQsqaUBKTNV-1">
          <mxGeometry x="-260" y="470" width="460" height="230" as="geometry">
            <mxRectangle x="130" y="380" width="160" height="26" as="alternateBounds" />
          </mxGeometry>
        </mxCell>
        <mxCell id="t991L9Meam5LPXpIdbOd-11" value="Responsabilidades:&#xa;&#xa;Registrar nuevos socios.&#xa;Almacenar la información personal de los socios.&#xa;Emitir y gestionar carnets de socio.&#xa;Registrar y actualizar la fecha de vencimiento de la membresía." style="text;align=left;verticalAlign=top;spacingLeft=4;spacingRight=4;overflow=hidden;rotatable=0;points=[[0,0.5],[1,0.5]];portConstraint=eastwest;rounded=0;shadow=0;html=0;" vertex="1" parent="t991L9Meam5LPXpIdbOd-10">
          <mxGeometry y="26" width="460" height="114" as="geometry" />
        </mxCell>
        <mxCell id="t991L9Meam5LPXpIdbOd-12" value="" style="line;html=1;strokeWidth=1;align=left;verticalAlign=middle;spacingTop=-1;spacingLeft=3;spacingRight=3;rotatable=0;labelPosition=right;points=[];portConstraint=eastwest;" vertex="1" parent="t991L9Meam5LPXpIdbOd-10">
          <mxGeometry y="140" width="460" height="20" as="geometry" />
        </mxCell>
        <mxCell id="t991L9Meam5LPXpIdbOd-13" value="Colaboradores:&#xa;&#xa;Sistema (para registrar y gestionar información)&#xa;Empleado (para registrar y emitir carnets)" style="text;align=left;verticalAlign=top;spacingLeft=4;spacingRight=4;overflow=hidden;rotatable=0;points=[[0,0.5],[1,0.5]];portConstraint=eastwest;fontStyle=0" vertex="1" parent="t991L9Meam5LPXpIdbOd-10">
          <mxGeometry y="160" width="460" height="70" as="geometry" />
        </mxCell>
        <mxCell id="t991L9Meam5LPXpIdbOd-15" value="Socio" style="shape=table;startSize=30;container=1;collapsible=0;childLayout=tableLayout;fixedRows=1;rowLines=0;fontStyle=0;strokeColor=default;fontSize=16;" vertex="1" parent="WIyWlLk6GJQsqaUBKTNV-1">
          <mxGeometry x="-250" y="200" width="490" height="190" as="geometry" />
        </mxCell>
        <mxCell id="t991L9Meam5LPXpIdbOd-16" value="" style="shape=tableRow;horizontal=0;startSize=0;swimlaneHead=0;swimlaneBody=0;top=0;left=0;bottom=0;right=0;collapsible=0;dropTarget=0;fillColor=none;points=[[0,0.5],[1,0.5]];portConstraint=eastwest;strokeColor=inherit;fontSize=16;" vertex="1" parent="t991L9Meam5LPXpIdbOd-15">
          <mxGeometry y="30" width="490" height="20" as="geometry" />
        </mxCell>
        <mxCell id="t991L9Meam5LPXpIdbOd-17" value="&lt;span style=&quot;font-size: 12px; text-align: left; text-wrap: nowrap;&quot;&gt;Responsabilidades&lt;/span&gt;" style="shape=partialRectangle;html=1;whiteSpace=wrap;connectable=0;fillColor=none;top=0;left=0;bottom=0;right=0;overflow=hidden;pointerEvents=1;strokeColor=inherit;fontSize=16;" vertex="1" parent="t991L9Meam5LPXpIdbOd-16">
          <mxGeometry width="220" height="20" as="geometry">
            <mxRectangle width="220" height="20" as="alternateBounds" />
          </mxGeometry>
        </mxCell>
        <mxCell id="t991L9Meam5LPXpIdbOd-18" value="&lt;span style=&quot;font-size: 12px; text-wrap: nowrap;&quot;&gt;Colaboradores&lt;/span&gt;" style="shape=partialRectangle;html=1;whiteSpace=wrap;connectable=0;fillColor=none;top=0;left=0;bottom=0;right=0;align=center;spacingLeft=6;overflow=hidden;strokeColor=inherit;fontSize=16;" vertex="1" parent="t991L9Meam5LPXpIdbOd-16">
          <mxGeometry x="220" width="270" height="20" as="geometry">
            <mxRectangle width="270" height="20" as="alternateBounds" />
          </mxGeometry>
        </mxCell>
        <mxCell id="t991L9Meam5LPXpIdbOd-19" value="" style="shape=tableRow;horizontal=0;startSize=0;swimlaneHead=0;swimlaneBody=0;top=0;left=0;bottom=0;right=0;collapsible=0;dropTarget=0;fillColor=none;points=[[0,0.5],[1,0.5]];portConstraint=eastwest;strokeColor=inherit;fontSize=16;" vertex="1" parent="t991L9Meam5LPXpIdbOd-15">
          <mxGeometry y="50" width="490" height="20" as="geometry" />
        </mxCell>
        <mxCell id="t991L9Meam5LPXpIdbOd-20" value="" style="shape=partialRectangle;html=1;whiteSpace=wrap;connectable=0;fillColor=none;top=0;left=0;bottom=0;right=0;overflow=hidden;strokeColor=inherit;fontSize=16;" vertex="1" parent="t991L9Meam5LPXpIdbOd-19">
          <mxGeometry width="220" height="20" as="geometry">
            <mxRectangle width="220" height="20" as="alternateBounds" />
          </mxGeometry>
        </mxCell>
        <mxCell id="t991L9Meam5LPXpIdbOd-21" value="" style="shape=partialRectangle;html=1;whiteSpace=wrap;connectable=0;fillColor=none;top=0;left=0;bottom=0;right=0;align=left;spacingLeft=6;overflow=hidden;strokeColor=inherit;fontSize=16;" vertex="1" parent="t991L9Meam5LPXpIdbOd-19">
          <mxGeometry x="220" width="270" height="20" as="geometry">
            <mxRectangle width="270" height="20" as="alternateBounds" />
          </mxGeometry>
        </mxCell>
        <mxCell id="t991L9Meam5LPXpIdbOd-22" value="" style="shape=tableRow;horizontal=0;startSize=0;swimlaneHead=0;swimlaneBody=0;top=0;left=0;bottom=0;right=0;collapsible=0;dropTarget=0;fillColor=none;points=[[0,0.5],[1,0.5]];portConstraint=eastwest;strokeColor=inherit;fontSize=16;" vertex="1" parent="t991L9Meam5LPXpIdbOd-15">
          <mxGeometry y="70" width="490" height="120" as="geometry" />
        </mxCell>
        <mxCell id="t991L9Meam5LPXpIdbOd-23" value="&lt;span style=&quot;font-size: 12px; text-wrap: nowrap;&quot;&gt;Registrar nuevos socios.&lt;/span&gt;&lt;br style=&quot;padding: 0px; margin: 0px; font-size: 12px; text-wrap: nowrap;&quot;&gt;&lt;span style=&quot;font-size: 12px; text-wrap: nowrap;&quot;&gt;Almacenar la información personal&amp;nbsp;&lt;/span&gt;&lt;div&gt;&lt;span style=&quot;font-size: 12px; text-wrap: nowrap;&quot;&gt;de los socios.&lt;/span&gt;&lt;br style=&quot;padding: 0px; margin: 0px; font-size: 12px; text-wrap: nowrap;&quot;&gt;&lt;span style=&quot;font-size: 12px; text-wrap: nowrap;&quot;&gt;Emitir y gestionar carnets de socio.&lt;/span&gt;&lt;br style=&quot;padding: 0px; margin: 0px; font-size: 12px; text-wrap: nowrap;&quot;&gt;&lt;span style=&quot;font-size: 12px; text-wrap: nowrap;&quot;&gt;Registrar y actualizar la fecha de&amp;nbsp;&lt;/span&gt;&lt;/div&gt;&lt;div&gt;&lt;span style=&quot;font-size: 12px; text-wrap: nowrap;&quot;&gt;vencimiento de la membresía.&lt;/span&gt;&lt;/div&gt;" style="shape=partialRectangle;html=1;whiteSpace=wrap;connectable=0;fillColor=none;top=0;left=0;bottom=0;right=0;overflow=hidden;strokeColor=inherit;fontSize=16;align=left;" vertex="1" parent="t991L9Meam5LPXpIdbOd-22">
          <mxGeometry width="220" height="120" as="geometry">
            <mxRectangle width="220" height="120" as="alternateBounds" />
          </mxGeometry>
        </mxCell>
        <mxCell id="t991L9Meam5LPXpIdbOd-24" value="&lt;span style=&quot;font-size: 12px; text-wrap: nowrap;&quot;&gt;Sistema (para registrar y gestionar información)&lt;/span&gt;&lt;br style=&quot;padding: 0px; margin: 0px; font-size: 12px; text-wrap: nowrap;&quot;&gt;&lt;span style=&quot;font-size: 12px; text-wrap: nowrap;&quot;&gt;Empleado (para registrar y emitir carnets)&lt;/span&gt;" style="shape=partialRectangle;html=1;whiteSpace=wrap;connectable=0;fillColor=none;top=0;left=0;bottom=0;right=0;align=left;spacingLeft=6;overflow=hidden;strokeColor=inherit;fontSize=16;" vertex="1" parent="t991L9Meam5LPXpIdbOd-22">
          <mxGeometry x="220" width="270" height="120" as="geometry">
            <mxRectangle width="270" height="120" as="alternateBounds" />
          </mxGeometry>
        </mxCell>
        <mxCell id="t991L9Meam5LPXpIdbOd-25" value="Empleado" style="shape=table;startSize=30;container=1;collapsible=0;childLayout=tableLayout;fixedRows=1;rowLines=0;fontStyle=0;strokeColor=default;fontSize=16;" vertex="1" parent="WIyWlLk6GJQsqaUBKTNV-1">
          <mxGeometry x="-880" y="200" width="500" height="250" as="geometry" />
        </mxCell>
        <mxCell id="t991L9Meam5LPXpIdbOd-26" value="" style="shape=tableRow;horizontal=0;startSize=0;swimlaneHead=0;swimlaneBody=0;top=0;left=0;bottom=0;right=0;collapsible=0;dropTarget=0;fillColor=none;points=[[0,0.5],[1,0.5]];portConstraint=eastwest;strokeColor=inherit;fontSize=16;" vertex="1" parent="t991L9Meam5LPXpIdbOd-25">
          <mxGeometry y="30" width="500" height="30" as="geometry" />
        </mxCell>
        <mxCell id="t991L9Meam5LPXpIdbOd-27" value="&lt;span style=&quot;font-size: 12px; text-align: left; text-wrap: nowrap;&quot;&gt;Responsabilidades:&lt;/span&gt;" style="shape=partialRectangle;html=1;whiteSpace=wrap;connectable=0;fillColor=none;top=0;left=0;bottom=0;right=0;overflow=hidden;pointerEvents=1;strokeColor=inherit;fontSize=16;" vertex="1" parent="t991L9Meam5LPXpIdbOd-26">
          <mxGeometry width="230" height="30" as="geometry">
            <mxRectangle width="230" height="30" as="alternateBounds" />
          </mxGeometry>
        </mxCell>
        <mxCell id="t991L9Meam5LPXpIdbOd-28" value="&lt;span style=&quot;font-size: 12px; text-wrap: nowrap;&quot;&gt;Colaboradores&lt;/span&gt;" style="shape=partialRectangle;html=1;whiteSpace=wrap;connectable=0;fillColor=none;top=0;left=0;bottom=0;right=0;align=center;spacingLeft=6;overflow=hidden;strokeColor=inherit;fontSize=16;" vertex="1" parent="t991L9Meam5LPXpIdbOd-26">
          <mxGeometry x="230" width="270" height="30" as="geometry">
            <mxRectangle width="270" height="30" as="alternateBounds" />
          </mxGeometry>
        </mxCell>
        <mxCell id="t991L9Meam5LPXpIdbOd-29" value="" style="shape=tableRow;horizontal=0;startSize=0;swimlaneHead=0;swimlaneBody=0;top=0;left=0;bottom=0;right=0;collapsible=0;dropTarget=0;fillColor=none;points=[[0,0.5],[1,0.5]];portConstraint=eastwest;strokeColor=inherit;fontSize=16;" vertex="1" parent="t991L9Meam5LPXpIdbOd-25">
          <mxGeometry y="60" width="500" height="30" as="geometry" />
        </mxCell>
        <mxCell id="t991L9Meam5LPXpIdbOd-30" value="" style="shape=partialRectangle;html=1;whiteSpace=wrap;connectable=0;fillColor=none;top=0;left=0;bottom=0;right=0;overflow=hidden;strokeColor=inherit;fontSize=16;" vertex="1" parent="t991L9Meam5LPXpIdbOd-29">
          <mxGeometry width="230" height="30" as="geometry">
            <mxRectangle width="230" height="30" as="alternateBounds" />
          </mxGeometry>
        </mxCell>
        <mxCell id="t991L9Meam5LPXpIdbOd-31" value="" style="shape=partialRectangle;html=1;whiteSpace=wrap;connectable=0;fillColor=none;top=0;left=0;bottom=0;right=0;align=left;spacingLeft=6;overflow=hidden;strokeColor=inherit;fontSize=16;" vertex="1" parent="t991L9Meam5LPXpIdbOd-29">
          <mxGeometry x="230" width="270" height="30" as="geometry">
            <mxRectangle width="270" height="30" as="alternateBounds" />
          </mxGeometry>
        </mxCell>
        <mxCell id="t991L9Meam5LPXpIdbOd-32" value="" style="shape=tableRow;horizontal=0;startSize=0;swimlaneHead=0;swimlaneBody=0;top=0;left=0;bottom=0;right=0;collapsible=0;dropTarget=0;fillColor=none;points=[[0,0.5],[1,0.5]];portConstraint=eastwest;strokeColor=inherit;fontSize=16;" vertex="1" parent="t991L9Meam5LPXpIdbOd-25">
          <mxGeometry y="90" width="500" height="160" as="geometry" />
        </mxCell>
        <mxCell id="t991L9Meam5LPXpIdbOd-33" value="&lt;span style=&quot;font-size: 12px; text-wrap: nowrap;&quot;&gt;Gestionar el registro de nuevos libros.&lt;/span&gt;&lt;br style=&quot;padding: 0px; margin: 0px; font-size: 12px; text-wrap: nowrap;&quot;&gt;&lt;span style=&quot;font-size: 12px; text-wrap: nowrap;&quot;&gt;Registrar nuevos socios.&lt;/span&gt;&lt;br style=&quot;padding: 0px; margin: 0px; font-size: 12px; text-wrap: nowrap;&quot;&gt;&lt;span style=&quot;font-size: 12px; text-wrap: nowrap;&quot;&gt;Realizar y gestionar préstamos y&lt;/span&gt;&lt;div&gt;&lt;span style=&quot;font-size: 12px; text-wrap: nowrap;&quot;&gt;&amp;nbsp;devoluciones de libros.&lt;/span&gt;&lt;br style=&quot;padding: 0px; margin: 0px; font-size: 12px; text-wrap: nowrap;&quot;&gt;&lt;span style=&quot;font-size: 12px; text-wrap: nowrap;&quot;&gt;Asistir a los usuarios en consultas sobre&lt;/span&gt;&lt;/div&gt;&lt;div&gt;&lt;span style=&quot;font-size: 12px; text-wrap: nowrap;&quot;&gt;&amp;nbsp;disponibilidad de libros.&lt;/span&gt;&lt;/div&gt;" style="shape=partialRectangle;html=1;whiteSpace=wrap;connectable=0;fillColor=none;top=0;left=0;bottom=0;right=0;overflow=hidden;strokeColor=inherit;fontSize=16;align=left;" vertex="1" parent="t991L9Meam5LPXpIdbOd-32">
          <mxGeometry width="230" height="160" as="geometry">
            <mxRectangle width="230" height="160" as="alternateBounds" />
          </mxGeometry>
        </mxCell>
        <mxCell id="t991L9Meam5LPXpIdbOd-34" value="&lt;span style=&quot;font-size: 12px; text-wrap: nowrap;&quot;&gt;Sistema (para registrar y gestionar información)&lt;/span&gt;&lt;br style=&quot;padding: 0px; margin: 0px; font-size: 12px; text-wrap: nowrap;&quot;&gt;&lt;span style=&quot;font-size: 12px; text-wrap: nowrap;&quot;&gt;Libro (para registrar préstamos y devoluciones)&lt;/span&gt;&lt;br style=&quot;padding: 0px; margin: 0px; font-size: 12px; text-wrap: nowrap;&quot;&gt;&lt;span style=&quot;font-size: 12px; text-wrap: nowrap;&quot;&gt;Socio (para registrar y gestionar información)&lt;/span&gt;" style="shape=partialRectangle;html=1;whiteSpace=wrap;connectable=0;fillColor=none;top=0;left=0;bottom=0;right=0;align=left;spacingLeft=6;overflow=hidden;strokeColor=inherit;fontSize=16;" vertex="1" parent="t991L9Meam5LPXpIdbOd-32">
          <mxGeometry x="230" width="270" height="160" as="geometry">
            <mxRectangle width="270" height="160" as="alternateBounds" />
          </mxGeometry>
        </mxCell>
        <mxCell id="t991L9Meam5LPXpIdbOd-61" value="" style="group" vertex="1" connectable="0" parent="WIyWlLk6GJQsqaUBKTNV-1">
          <mxGeometry x="1110" y="350" width="800" height="260" as="geometry" />
        </mxCell>
        <mxCell id="t991L9Meam5LPXpIdbOd-57" value="&lt;h1 style=&quot;margin-top: 0px;&quot;&gt;&lt;span style=&quot;font-weight: 400; text-wrap: nowrap; font-size: 12px;&quot;&gt;Responsabilidades:&lt;/span&gt;&lt;br style=&quot;padding: 0px; margin: 0px; font-weight: 400; text-wrap: nowrap; font-size: 12px;&quot;&gt;&lt;span style=&quot;font-weight: 400; text-wrap: nowrap; font-size: 12px;&quot;&gt;Gestionar la base de datos de la biblioteca.&lt;/span&gt;&lt;br style=&quot;padding: 0px; margin: 0px; font-weight: 400; text-wrap: nowrap; font-size: 12px;&quot;&gt;&lt;span style=&quot;font-weight: 400; text-wrap: nowrap; font-size: 12px;&quot;&gt;Automatizar el registro y organización de materiales.&lt;/span&gt;&lt;br style=&quot;padding: 0px; margin: 0px; font-weight: 400; text-wrap: nowrap; font-size: 12px;&quot;&gt;&lt;span style=&quot;font-weight: 400; text-wrap: nowrap; font-size: 12px;&quot;&gt;Gestionar digitalmente la información de los socios y sus membresías.&lt;/span&gt;&lt;br style=&quot;padding: 0px; margin: 0px; font-weight: 400; text-wrap: nowrap; font-size: 12px;&quot;&gt;&lt;span style=&quot;font-weight: 400; text-wrap: nowrap; font-size: 12px;&quot;&gt;Permitir la realización y gestión de préstamos y devoluciones.&lt;/span&gt;&lt;br style=&quot;padding: 0px; margin: 0px; font-weight: 400; text-wrap: nowrap; font-size: 12px;&quot;&gt;&lt;span style=&quot;font-weight: 400; text-wrap: nowrap; font-size: 12px;&quot;&gt;Proveer funcionalidades de consulta de disponibilidad de libros.&lt;/span&gt;&lt;br&gt;&lt;/h1&gt;" style="text;html=1;whiteSpace=wrap;overflow=hidden;rounded=0;" vertex="1" parent="t991L9Meam5LPXpIdbOd-61">
          <mxGeometry y="30" width="360" height="230" as="geometry" />
        </mxCell>
        <mxCell id="t991L9Meam5LPXpIdbOd-45" value="Sistema" style="shape=table;startSize=30;container=1;collapsible=0;childLayout=tableLayout;fixedRows=1;rowLines=0;fontStyle=0;strokeColor=default;fontSize=16;" vertex="1" parent="t991L9Meam5LPXpIdbOd-61">
          <mxGeometry width="800" height="230" as="geometry" />
        </mxCell>
        <mxCell id="t991L9Meam5LPXpIdbOd-46" value="" style="shape=tableRow;horizontal=0;startSize=0;swimlaneHead=0;swimlaneBody=0;top=0;left=0;bottom=0;right=0;collapsible=0;dropTarget=0;fillColor=none;points=[[0,0.5],[1,0.5]];portConstraint=eastwest;strokeColor=inherit;fontSize=16;" vertex="1" parent="t991L9Meam5LPXpIdbOd-45">
          <mxGeometry y="30" width="800" height="30" as="geometry" />
        </mxCell>
        <mxCell id="t991L9Meam5LPXpIdbOd-47" value="" style="shape=partialRectangle;html=1;whiteSpace=wrap;connectable=0;fillColor=none;top=0;left=0;bottom=0;right=0;overflow=hidden;pointerEvents=1;strokeColor=inherit;fontSize=16;" vertex="1" parent="t991L9Meam5LPXpIdbOd-46">
          <mxGeometry width="370" height="30" as="geometry">
            <mxRectangle width="370" height="30" as="alternateBounds" />
          </mxGeometry>
        </mxCell>
        <mxCell id="t991L9Meam5LPXpIdbOd-48" value="" style="shape=partialRectangle;html=1;whiteSpace=wrap;connectable=0;fillColor=none;top=0;left=0;bottom=0;right=0;align=left;spacingLeft=6;overflow=hidden;strokeColor=inherit;fontSize=16;" vertex="1" parent="t991L9Meam5LPXpIdbOd-46">
          <mxGeometry x="370" width="430" height="30" as="geometry">
            <mxRectangle width="430" height="30" as="alternateBounds" />
          </mxGeometry>
        </mxCell>
        <mxCell id="t991L9Meam5LPXpIdbOd-49" value="" style="shape=tableRow;horizontal=0;startSize=0;swimlaneHead=0;swimlaneBody=0;top=0;left=0;bottom=0;right=0;collapsible=0;dropTarget=0;fillColor=none;points=[[0,0.5],[1,0.5]];portConstraint=eastwest;strokeColor=inherit;fontSize=16;" vertex="1" parent="t991L9Meam5LPXpIdbOd-45">
          <mxGeometry y="60" width="800" height="30" as="geometry" />
        </mxCell>
        <mxCell id="t991L9Meam5LPXpIdbOd-50" value="" style="shape=partialRectangle;html=1;whiteSpace=wrap;connectable=0;fillColor=none;top=0;left=0;bottom=0;right=0;overflow=hidden;strokeColor=inherit;fontSize=16;" vertex="1" parent="t991L9Meam5LPXpIdbOd-49">
          <mxGeometry width="370" height="30" as="geometry">
            <mxRectangle width="370" height="30" as="alternateBounds" />
          </mxGeometry>
        </mxCell>
        <mxCell id="t991L9Meam5LPXpIdbOd-51" value="" style="shape=partialRectangle;html=1;whiteSpace=wrap;connectable=0;fillColor=none;top=0;left=0;bottom=0;right=0;align=left;spacingLeft=6;overflow=hidden;strokeColor=inherit;fontSize=16;" vertex="1" parent="t991L9Meam5LPXpIdbOd-49">
          <mxGeometry x="370" width="430" height="30" as="geometry">
            <mxRectangle width="430" height="30" as="alternateBounds" />
          </mxGeometry>
        </mxCell>
        <mxCell id="t991L9Meam5LPXpIdbOd-52" value="" style="shape=tableRow;horizontal=0;startSize=0;swimlaneHead=0;swimlaneBody=0;top=0;left=0;bottom=0;right=0;collapsible=0;dropTarget=0;fillColor=none;points=[[0,0.5],[1,0.5]];portConstraint=eastwest;strokeColor=inherit;fontSize=16;" vertex="1" parent="t991L9Meam5LPXpIdbOd-45">
          <mxGeometry y="90" width="800" height="130" as="geometry" />
        </mxCell>
        <mxCell id="t991L9Meam5LPXpIdbOd-53" value="" style="shape=partialRectangle;html=1;whiteSpace=wrap;connectable=0;fillColor=none;top=0;left=0;bottom=0;right=0;overflow=hidden;strokeColor=inherit;fontSize=16;" vertex="1" parent="t991L9Meam5LPXpIdbOd-52">
          <mxGeometry width="370" height="130" as="geometry">
            <mxRectangle width="370" height="130" as="alternateBounds" />
          </mxGeometry>
        </mxCell>
        <mxCell id="t991L9Meam5LPXpIdbOd-54" value="" style="shape=partialRectangle;html=1;whiteSpace=wrap;connectable=0;fillColor=none;top=0;left=0;bottom=0;right=0;align=left;spacingLeft=6;overflow=hidden;strokeColor=inherit;fontSize=16;" vertex="1" parent="t991L9Meam5LPXpIdbOd-52">
          <mxGeometry x="370" width="430" height="130" as="geometry">
            <mxRectangle width="430" height="130" as="alternateBounds" />
          </mxGeometry>
        </mxCell>
        <mxCell id="t991L9Meam5LPXpIdbOd-60" value="&lt;h1 style=&quot;margin-top: 0px;&quot;&gt;&lt;span style=&quot;font-weight: 400; text-wrap: nowrap; font-size: 12px;&quot;&gt;Colaboradores:&lt;/span&gt;&lt;br style=&quot;padding: 0px; margin: 0px; font-weight: 400; text-wrap: nowrap; font-size: 12px;&quot;&gt;&lt;span style=&quot;font-weight: 400; text-wrap: nowrap; font-size: 12px;&quot;&gt;Libro (para registrar y gestionar información)&lt;/span&gt;&lt;br style=&quot;padding: 0px; margin: 0px; font-weight: 400; text-wrap: nowrap; font-size: 12px;&quot;&gt;&lt;span style=&quot;font-weight: 400; text-wrap: nowrap; font-size: 12px;&quot;&gt;Socio (para registrar y gestionar información)&lt;/span&gt;&lt;br style=&quot;padding: 0px; margin: 0px; font-weight: 400; text-wrap: nowrap; font-size: 12px;&quot;&gt;&lt;span style=&quot;font-weight: 400; text-wrap: nowrap; font-size: 12px;&quot;&gt;Empleado (para realizar operaciones de registro, préstamos y devoluciones)&lt;/span&gt;&lt;br style=&quot;padding: 0px; margin: 0px; font-weight: 400; text-wrap: nowrap; font-size: 12px;&quot;&gt;&lt;span style=&quot;font-weight: 400; text-wrap: nowrap; font-size: 12px;&quot;&gt;Préstamo (para gestionar préstamos y devoluciones)&lt;/span&gt;&lt;br&gt;&lt;/h1&gt;" style="text;html=1;whiteSpace=wrap;overflow=hidden;rounded=0;" vertex="1" parent="t991L9Meam5LPXpIdbOd-61">
          <mxGeometry x="380" y="20" width="410" height="200" as="geometry" />
        </mxCell>
        <mxCell id="t991L9Meam5LPXpIdbOd-35" value="Libro" style="shape=table;startSize=30;container=1;collapsible=0;childLayout=tableLayout;fixedRows=1;rowLines=0;fontStyle=0;strokeColor=default;fontSize=16;" vertex="1" parent="WIyWlLk6GJQsqaUBKTNV-1">
          <mxGeometry x="300" y="200" width="520" height="200" as="geometry" />
        </mxCell>
        <mxCell id="t991L9Meam5LPXpIdbOd-36" value="" style="shape=tableRow;horizontal=0;startSize=0;swimlaneHead=0;swimlaneBody=0;top=0;left=0;bottom=0;right=0;collapsible=0;dropTarget=0;fillColor=none;points=[[0,0.5],[1,0.5]];portConstraint=eastwest;strokeColor=inherit;fontSize=16;" vertex="1" parent="t991L9Meam5LPXpIdbOd-35">
          <mxGeometry y="30" width="520" height="20" as="geometry" />
        </mxCell>
        <mxCell id="t991L9Meam5LPXpIdbOd-37" value="&lt;span style=&quot;font-size: 12px; text-align: left; text-wrap: nowrap;&quot;&gt;Responsabilidades:&lt;/span&gt;" style="shape=partialRectangle;html=1;whiteSpace=wrap;connectable=0;fillColor=none;top=0;left=0;bottom=0;right=0;overflow=hidden;pointerEvents=1;strokeColor=inherit;fontSize=16;" vertex="1" parent="t991L9Meam5LPXpIdbOd-36">
          <mxGeometry width="250" height="20" as="geometry">
            <mxRectangle width="250" height="20" as="alternateBounds" />
          </mxGeometry>
        </mxCell>
        <mxCell id="t991L9Meam5LPXpIdbOd-38" value="&lt;span style=&quot;font-size: 12px; text-wrap: nowrap;&quot;&gt;Colaboradores&lt;/span&gt;" style="shape=partialRectangle;html=1;whiteSpace=wrap;connectable=0;fillColor=none;top=0;left=0;bottom=0;right=0;align=center;spacingLeft=6;overflow=hidden;strokeColor=inherit;fontSize=16;" vertex="1" parent="t991L9Meam5LPXpIdbOd-36">
          <mxGeometry x="250" width="270" height="20" as="geometry">
            <mxRectangle width="270" height="20" as="alternateBounds" />
          </mxGeometry>
        </mxCell>
        <mxCell id="t991L9Meam5LPXpIdbOd-39" value="" style="shape=tableRow;horizontal=0;startSize=0;swimlaneHead=0;swimlaneBody=0;top=0;left=0;bottom=0;right=0;collapsible=0;dropTarget=0;fillColor=none;points=[[0,0.5],[1,0.5]];portConstraint=eastwest;strokeColor=inherit;fontSize=16;" vertex="1" parent="t991L9Meam5LPXpIdbOd-35">
          <mxGeometry y="50" width="520" height="20" as="geometry" />
        </mxCell>
        <mxCell id="t991L9Meam5LPXpIdbOd-40" value="" style="shape=partialRectangle;html=1;whiteSpace=wrap;connectable=0;fillColor=none;top=0;left=0;bottom=0;right=0;overflow=hidden;strokeColor=inherit;fontSize=16;" vertex="1" parent="t991L9Meam5LPXpIdbOd-39">
          <mxGeometry width="250" height="20" as="geometry">
            <mxRectangle width="250" height="20" as="alternateBounds" />
          </mxGeometry>
        </mxCell>
        <mxCell id="t991L9Meam5LPXpIdbOd-41" value="" style="shape=partialRectangle;html=1;whiteSpace=wrap;connectable=0;fillColor=none;top=0;left=0;bottom=0;right=0;align=left;spacingLeft=6;overflow=hidden;strokeColor=inherit;fontSize=16;" vertex="1" parent="t991L9Meam5LPXpIdbOd-39">
          <mxGeometry x="250" width="270" height="20" as="geometry">
            <mxRectangle width="270" height="20" as="alternateBounds" />
          </mxGeometry>
        </mxCell>
        <mxCell id="t991L9Meam5LPXpIdbOd-42" value="" style="shape=tableRow;horizontal=0;startSize=0;swimlaneHead=0;swimlaneBody=0;top=0;left=0;bottom=0;right=0;collapsible=0;dropTarget=0;fillColor=none;points=[[0,0.5],[1,0.5]];portConstraint=eastwest;strokeColor=inherit;fontSize=16;" vertex="1" parent="t991L9Meam5LPXpIdbOd-35">
          <mxGeometry y="70" width="520" height="130" as="geometry" />
        </mxCell>
        <mxCell id="t991L9Meam5LPXpIdbOd-43" value="&lt;span style=&quot;font-size: 12px; text-wrap: nowrap;&quot;&gt;Registrar nuevos libros en el sistema.&lt;/span&gt;&lt;br style=&quot;padding: 0px; margin: 0px; font-size: 12px; text-wrap: nowrap;&quot;&gt;&lt;span style=&quot;font-size: 12px; text-wrap: nowrap;&quot;&gt;Almacenar información del libro (título,&lt;/span&gt;&lt;div&gt;&lt;span style=&quot;font-size: 12px; text-wrap: nowrap;&quot;&gt;&amp;nbsp;autor, género, número de ejemplares, ISBN).&lt;/span&gt;&lt;br style=&quot;padding: 0px; margin: 0px; font-size: 12px; text-wrap: nowrap;&quot;&gt;&lt;span style=&quot;font-size: 12px; text-wrap: nowrap;&quot;&gt;Actualizar la disponibilidad de los libros.&lt;/span&gt;&lt;br style=&quot;padding: 0px; margin: 0px; font-size: 12px; text-wrap: nowrap;&quot;&gt;&lt;span style=&quot;font-size: 12px; text-wrap: nowrap;&quot;&gt;Asociar libros con préstamos y devoluciones.&lt;/span&gt;&lt;/div&gt;" style="shape=partialRectangle;html=1;whiteSpace=wrap;connectable=0;fillColor=none;top=0;left=0;bottom=0;right=0;overflow=hidden;strokeColor=inherit;fontSize=16;align=left;" vertex="1" parent="t991L9Meam5LPXpIdbOd-42">
          <mxGeometry width="250" height="130" as="geometry">
            <mxRectangle width="250" height="130" as="alternateBounds" />
          </mxGeometry>
        </mxCell>
        <mxCell id="t991L9Meam5LPXpIdbOd-44" value="&lt;span style=&quot;font-size: 12px; text-wrap: nowrap;&quot;&gt;Sistema (para registrar y gestionar información)&lt;/span&gt;&lt;br style=&quot;padding: 0px; margin: 0px; font-size: 12px; text-wrap: nowrap;&quot;&gt;&lt;span style=&quot;font-size: 12px; text-wrap: nowrap;&quot;&gt;Libro (para registrar préstamos y devoluciones)&lt;/span&gt;&lt;br style=&quot;padding: 0px; margin: 0px; font-size: 12px; text-wrap: nowrap;&quot;&gt;&lt;span style=&quot;font-size: 12px; text-wrap: nowrap;&quot;&gt;Socio (para registrar y gestionar información)&lt;/span&gt;" style="shape=partialRectangle;html=1;whiteSpace=wrap;connectable=0;fillColor=none;top=0;left=0;bottom=0;right=0;align=left;spacingLeft=6;overflow=hidden;strokeColor=inherit;fontSize=16;" vertex="1" parent="t991L9Meam5LPXpIdbOd-42">
          <mxGeometry x="250" width="270" height="130" as="geometry">
            <mxRectangle width="270" height="130" as="alternateBounds" />
          </mxGeometry>
        </mxCell>
      </root>
    </mxGraphModel>
  </diagram>
</mxfile>
